<svg width="20" height="20" viewBox="0 0 20 20" fill="none" xmlns="http://www.w3.org/2000/svg">
<path d="M3.66671 2.50001H16.3334C17.4167 2.50001 18.3334 3.41668 18.3334 4.50001V8.33334H16.6667V4.83334C16.6667 4.33334 16.3334 4.16668 15.8334 4.16668H4.16671C3.66671 4.16668 3.33337 4.50001 3.33337 5.00001V8.33334H1.66671V4.50001C1.66671 3.41668 2.58337 2.50001 3.66671 2.50001Z" fill="#FFD762"/>
<path d="M7.24996 9.91667L8.83329 8.33333V11.6667C8.83329 13.3333 8.83329 15.75 6.83329 17.5C9.66663 17 11.0833 14.8333 11.1666 11.6667V8.33333L12.75 9.91667L14.1666 9.16667L9.99996 5L5.83329 9.16667L7.24996 9.91667Z" fill="#FFD762"/>
</svg>
