<svg width="221" height="72" viewBox="0 0 221 72" fill="none" xmlns="http://www.w3.org/2000/svg">
<g clip-path="url(#clip0_1_217)">
<g filter="url(#filter0_d_1_217)">
<path fill-rule="evenodd" clip-rule="evenodd" d="M195.163 57.0497H58.177C52.7669 62.4931 45.2746 65.8641 36.993 65.8641C20.4953 65.8641 7.12183 52.4906 7.12183 35.993C7.12183 19.4953 20.4953 6.12183 36.993 6.12183C45.2746 6.12183 52.7669 9.49286 58.177 14.9363H195.163C196.245 14.9363 197.122 15.8128 197.122 16.895V55.0909C197.122 56.1731 196.245 57.0497 195.163 57.0497Z" fill="#22041E"/>
<path d="M58.177 56.0497H57.761L57.4677 56.3447C52.2375 61.6071 44.9975 64.8641 36.993 64.8641C21.0476 64.8641 8.12183 51.9384 8.12183 35.993C8.12183 20.0476 21.0476 7.12183 36.993 7.12183C44.9975 7.12183 52.2375 10.3788 57.4677 15.6412L57.761 15.9363H58.177H195.163C195.693 15.9363 196.122 16.3651 196.122 16.895V55.0909C196.122 55.6208 195.693 56.0497 195.163 56.0497H58.177Z" stroke="url(#paint0_linear_1_217)" stroke-width="2"/>
</g>
<g clip-path="url(#clip1_1_217)">
<path d="M51.6203 48.7296L51.12 48.2293C50.6622 47.7715 49.9457 47.7319 49.4383 48.1044L43.8002 42.4664C44.2295 41.7581 44.5321 40.9783 44.6884 40.1544C44.7847 39.6481 44.6494 39.1352 44.3176 38.7473C43.9918 38.3669 43.5185 38.1595 43.0166 38.1738C42.4965 38.1909 42.0332 38.4545 41.7421 38.8513L39.3916 36.5008L49.8834 26.0084C49.9379 25.9539 49.9803 25.889 50.0078 25.8175L51.9631 20.749C52.0413 20.5459 51.9929 20.3159 51.8387 20.1618C51.6847 20.0078 51.4535 19.9588 51.2515 20.0374L46.1837 21.9927C46.1116 22.0203 46.0466 22.0632 45.9921 22.1171L35.5003 32.6095L25.0079 22.1171C24.9534 22.0632 24.8884 22.0203 24.8169 21.9927L19.7484 20.0374C19.5459 19.9588 19.3153 20.0077 19.1613 20.1618C19.0072 20.3159 18.9588 20.5459 19.0369 20.749L20.9921 25.8175C21.0197 25.889 21.0621 25.9539 21.1166 26.0084L31.6089 36.5008L29.258 38.8513C28.9669 38.4545 28.5035 38.1909 27.9835 38.1738C27.4777 38.1584 27.0083 38.3669 26.6831 38.7473C26.3507 39.1352 26.2153 39.6481 26.3116 40.1544C26.4674 40.9766 26.77 41.7548 27.2009 42.4652L21.5618 48.1044C21.0544 47.7324 20.3384 47.7714 19.88 48.2293L19.3803 48.7295C18.8746 49.2353 18.8746 50.0586 19.3803 50.5643L21.4364 52.6203C21.6895 52.8735 22.0219 53 22.3543 53C22.6862 53 23.0186 52.8735 23.2717 52.6203L23.7714 52.1207C24.2298 51.6623 24.2683 50.9463 23.8969 50.4389L29.5228 44.8129C30.2701 45.2758 31.1006 45.5977 31.9816 45.7595C32.0774 45.7771 32.1732 45.7853 32.2689 45.7853C32.6453 45.7853 33.0129 45.6511 33.309 45.4001C33.6915 45.0749 33.9061 44.6005 33.8962 44.0964C33.8857 43.534 33.5907 43.0343 33.1467 42.7459L35.5004 40.3922L37.8541 42.7459C37.4094 43.0342 37.1145 43.5345 37.104 44.0991C37.0947 44.6004 37.3087 45.0748 37.6912 45.4001C37.9878 45.651 38.3555 45.7853 38.7319 45.7853C38.8271 45.7853 38.9234 45.777 39.0191 45.7594C39.9002 45.5976 40.7306 45.2757 41.4774 44.8129L47.1033 50.4388C46.9404 50.66 46.8491 50.9236 46.8491 51.2032C46.8491 51.5499 46.9839 51.8757 47.2288 52.1206L47.7285 52.6203C47.9816 52.8734 48.314 53 48.6464 53C48.9783 53 49.3107 52.8734 49.5638 52.6203L51.6198 50.5648C51.8647 50.3194 52.0001 49.9936 52.0001 49.6468C52 49.3003 51.8646 48.9739 51.6203 48.7296ZM23.1323 49.647L22.3542 48.8682L27.8326 43.3892L28.2371 43.7937L28.2421 43.7992C28.2432 43.8003 28.2448 43.8014 28.2459 43.8025L28.6113 44.1679L23.1323 49.647ZM46.6883 22.9778L50.4894 21.5118L49.0228 25.3123L38.6134 35.7227L37.8347 34.944L47.4516 25.3276C47.6662 25.1125 47.6662 24.7641 47.4516 24.5495C47.2364 24.3343 46.888 24.3343 46.6734 24.5495L37.0565 34.1658L36.2784 33.3876L46.6883 22.9778ZM31.9914 42.3442C31.7642 42.2638 31.5495 42.1587 31.3426 42.0387C31.2677 41.9942 31.1934 41.949 31.1214 41.8995C31.0641 41.861 31.0069 41.8219 30.9519 41.7801C30.8165 41.6766 30.6839 41.5682 30.5595 41.4466C30.444 41.3293 30.3411 41.2039 30.2431 41.0751C30.193 41.0085 30.1468 40.9397 30.1017 40.8698C30.0648 40.8148 30.0301 40.7581 29.9965 40.7015C29.9393 40.6024 29.8838 40.5022 29.8364 40.3982C29.832 40.3894 29.8287 40.38 29.8249 40.3713C29.7688 40.2469 29.7187 40.1192 29.6769 39.9888L32.3872 37.279L34.7217 39.614L31.9914 42.3442ZM23.549 25.3277C23.3337 25.1125 23.3337 24.7642 23.549 24.5495C23.7636 24.3343 24.112 24.3343 24.3271 24.5495L39.2006 39.4231C39.4158 39.6382 39.4158 39.9866 39.2006 40.2012C39.0933 40.3091 38.9524 40.3624 38.8115 40.3624C38.6706 40.3624 38.5298 40.309 38.4225 40.2012L23.549 25.3277ZM43.6071 39.9492C43.3886 41.101 42.8355 42.1532 42.0002 43.0002L41.9765 43.0243C41.1268 43.8718 40.0064 44.459 38.8199 44.677C38.6223 44.7139 38.4737 44.6198 38.4038 44.5608C38.2739 44.4508 38.2013 44.2895 38.2046 44.1173C38.209 43.8586 38.3862 43.6396 38.6256 43.5955C38.7472 43.5736 38.8644 43.5328 38.9839 43.5009C38.9882 43.4998 38.9921 43.5003 38.9965 43.4992C39.0042 43.497 39.0108 43.4937 39.0185 43.4915C39.2023 43.4414 39.3823 43.3814 39.5594 43.3093C39.6073 43.2901 39.6541 43.2681 39.7009 43.2477C39.8434 43.1838 39.9848 43.1189 40.1219 43.0413C40.2275 42.9829 40.3282 42.9147 40.4301 42.8482C40.5132 42.7931 40.5979 42.7436 40.6788 42.6831C40.8659 42.5444 41.0464 42.3936 41.217 42.2263L41.2225 42.2208C41.223 42.2203 41.2236 42.2203 41.2242 42.2191C41.2346 42.2092 41.2424 42.1971 41.2523 42.1867C41.4003 42.0337 41.5384 41.873 41.6639 41.7029C41.7613 41.573 41.8427 41.4349 41.9253 41.2973C41.9544 41.2489 41.9874 41.2038 42.0144 41.1542C42.1107 40.9803 42.191 40.7999 42.2648 40.616C42.2709 40.6001 42.2791 40.5847 42.2852 40.5687C42.3589 40.3771 42.4173 40.1813 42.4657 39.9815C42.4679 39.971 42.4723 39.9617 42.4745 39.9512C42.4756 39.9485 42.4751 39.9452 42.4756 39.9419C42.4943 39.8621 42.5224 39.7861 42.5367 39.7053C42.5791 39.4637 42.7959 39.2821 43.0524 39.2738C43.0584 39.2732 43.065 39.2732 43.0711 39.2732C43.2863 39.2732 43.42 39.391 43.4811 39.4625C43.5949 39.5953 43.6406 39.7731 43.6071 39.9492ZM50.8416 49.7862L48.7855 51.8422C48.7085 51.9187 48.583 51.9193 48.5071 51.8422L48.0068 51.3426C47.9567 51.2925 47.9496 51.2336 47.9496 51.2033C47.9496 51.1731 47.9568 51.1142 48.0074 51.0641L48.2567 50.8143L49.8136 49.258L50.0634 49.0076C50.1019 48.9696 50.1526 48.9503 50.2027 48.9503C50.2533 48.9503 50.3034 48.9696 50.3419 49.0076L50.8416 49.5078C50.8917 49.5579 50.8994 49.6162 50.8994 49.647C50.8994 49.6772 50.8917 49.7361 50.8416 49.7862Z" fill="#FFD762"/>
</g>
<g filter="url(#filter1_d_1_217)">
<path d="M72.474 38.5063C72.474 40.541 71.102 41.5583 68.358 41.5583H63.626V40.9283H64.62C64.928 40.8723 65.1193 40.737 65.194 40.5223V32.5283C65.166 32.3697 65.0913 32.2343 64.97 32.1223C64.858 32.001 64.7133 31.9263 64.536 31.8983H63.626V31.2683H68.358C69.3846 31.2683 70.1826 31.4737 70.752 31.8843C71.3306 32.295 71.62 32.9343 71.62 33.8023C71.62 34.9783 71.116 35.7203 70.108 36.0283C70.8453 36.1403 71.424 36.397 71.844 36.7983C72.264 37.1997 72.474 37.769 72.474 38.5063ZM69.184 35.5523C69.8186 35.3937 70.136 34.815 70.136 33.8163C70.136 32.687 69.702 32.0663 68.834 31.9543C68.526 31.917 68.204 31.8983 67.868 31.8983C67.532 31.8983 67.252 31.9077 67.028 31.9263C66.8693 31.9543 66.7013 32.1317 66.524 32.4583V35.7343H67.77C68.2366 35.7343 68.708 35.6737 69.184 35.5523ZM70.248 36.7423C69.9306 36.4997 69.4126 36.3783 68.694 36.3783H66.524V40.2843C66.5706 40.555 66.7153 40.7557 66.958 40.8863H67.784C68.7546 40.8863 69.45 40.7977 69.87 40.6203C70.5793 40.3217 70.934 39.6963 70.934 38.7443C70.934 37.783 70.7053 37.1157 70.248 36.7423ZM83.7802 40.9283H84.5502V41.5583H80.3782V40.9283H81.2182C81.4142 40.9283 81.5495 40.8723 81.6242 40.7603C81.7082 40.6483 81.7502 40.5503 81.7502 40.4663V40.2843L80.8542 37.8063H76.9342L76.0662 40.2843V40.4523C76.0662 40.5457 76.1128 40.6437 76.2062 40.7463C76.2995 40.8397 76.4302 40.9003 76.5982 40.9283H77.4382V41.5583H73.7842V40.9283H74.4842C74.6522 40.9003 74.8108 40.8257 74.9602 40.7043C75.1002 40.583 75.1982 40.443 75.2542 40.2843L78.5022 31.1983H79.7622L83.0102 40.2843C83.1408 40.6577 83.3975 40.8723 83.7802 40.9283ZM77.1862 37.1483H80.6302L78.9082 32.3183L77.1862 37.1483ZM91.139 32.5423V40.3543C91.307 40.6903 91.475 40.8677 91.643 40.8863H93.197V41.5583H87.821V40.9143H89.151C89.319 40.8957 89.459 40.8257 89.571 40.7043C89.683 40.583 89.7577 40.4477 89.795 40.2983V32.3183C89.7017 32.113 89.557 31.9823 89.361 31.9263C87.3077 31.9263 86.281 32.3837 86.281 33.2983V33.7743H85.665V31.2543H95.367V33.7743H94.751V33.2983C94.751 32.3837 94.2377 31.9263 93.211 31.9263H91.559C91.3164 32.057 91.1764 32.2623 91.139 32.5423ZM101.967 32.5423V40.3543C102.135 40.6903 102.303 40.8677 102.471 40.8863H104.025V41.5583H98.6492V40.9143H99.9792C100.147 40.8957 100.287 40.8257 100.399 40.7043C100.511 40.583 100.586 40.4477 100.623 40.2983V32.3183C100.53 32.113 100.385 31.9823 100.189 31.9263C98.1358 31.9263 97.1092 32.3837 97.1092 33.2983V33.7743H96.4932V31.2543H106.195V33.7743H105.579V33.2983C105.579 32.3837 105.066 31.9263 104.039 31.9263H102.387C102.145 32.057 102.005 32.2623 101.967 32.5423ZM110.219 40.2843C110.266 40.555 110.411 40.7557 110.653 40.8863L113.831 40.9003C114.858 40.9003 115.371 40.443 115.371 39.5283V39.0523H116.001V41.5583H107.321V40.9283H108.315C108.577 40.891 108.768 40.7557 108.889 40.5223V32.5283C108.861 32.3697 108.787 32.2343 108.665 32.1223C108.553 32.001 108.409 31.9263 108.231 31.8983H107.321V31.2683H111.871V31.9263H110.723C110.565 31.9543 110.397 32.1317 110.219 32.4583V40.2843ZM123.018 35.7343C123.485 35.585 123.718 35.277 123.718 34.8103V34.1803H124.348V37.9323H123.718V37.2183C123.718 36.8543 123.485 36.5743 123.018 36.3783H120.022V40.2843C120.069 40.555 120.213 40.7557 120.456 40.8863L124.446 40.9003C124.931 40.835 125.174 40.5737 125.174 40.1163V39.3463H125.804V41.5583H117.124V40.9283H118.118C118.379 40.891 118.571 40.7557 118.692 40.5223V32.5283C118.664 32.3697 118.589 32.2343 118.468 32.1223C118.356 32.001 118.211 31.9263 118.034 31.8983H117.124V31.2683H125.58V33.4943H124.95V32.6403C124.913 32.379 124.679 32.141 124.25 31.9263H120.526C120.367 31.9543 120.199 32.1317 120.022 32.4583V35.7343H123.018ZM140.851 40.9283H141.635V41.5583H137.183V40.9283H138.163C138.359 40.9283 138.457 40.8817 138.457 40.7883C138.457 40.723 138.419 40.6437 138.345 40.5503L135.489 36.9523H134.243V40.5223C134.243 40.793 134.453 40.9283 134.873 40.9283H135.797V41.5583H131.261V40.9283H132.269C132.409 40.9283 132.539 40.891 132.661 40.8163C132.791 40.7323 132.857 40.6343 132.857 40.5223V32.5143C132.857 32.3557 132.791 32.211 132.661 32.0803C132.539 31.9497 132.381 31.8843 132.185 31.8843H131.261V31.2543H136.343C137.36 31.2543 138.158 31.539 138.737 32.1083C139.325 32.6683 139.619 33.3777 139.619 34.2363C139.619 35.8323 138.723 36.7237 136.931 36.9103L139.815 40.5503C140.029 40.8023 140.375 40.9283 140.851 40.9283ZM134.243 32.4443V36.3223H136.049C137.43 36.3223 138.121 35.6223 138.121 34.2223C138.121 32.813 137.687 32.0523 136.819 31.9403C136.529 31.903 136.086 31.8843 135.489 31.8843C134.891 31.8843 134.532 31.9403 134.411 32.0523C134.299 32.155 134.243 32.2857 134.243 32.4443ZM145.265 41.1103C144.471 40.625 143.832 39.981 143.347 39.1783C142.861 38.3757 142.619 37.489 142.619 36.5183C142.619 35.5477 142.861 34.6563 143.347 33.8443C143.832 33.023 144.471 32.365 145.265 31.8703C146.058 31.3757 146.935 31.1283 147.897 31.1283C148.858 31.1283 149.731 31.3617 150.515 31.8283C151.308 32.295 151.947 32.939 152.433 33.7603C152.927 34.5723 153.175 35.487 153.175 36.5043C153.175 37.5123 152.927 38.4177 152.433 39.2203C151.947 40.023 151.308 40.6623 150.515 41.1383C149.731 41.605 148.858 41.8383 147.897 41.8383C146.935 41.8383 146.058 41.5957 145.265 41.1103ZM147.981 31.8703H147.519C146.725 31.8703 145.988 32.3277 145.307 33.2423C144.625 34.157 144.285 35.2677 144.285 36.5743C144.285 37.881 144.649 38.959 145.377 39.8083C146.105 40.6577 146.977 41.0823 147.995 41.0823C149.021 41.0823 149.861 40.653 150.515 39.7943C151.177 38.9263 151.509 37.811 151.509 36.4483C151.509 35.0857 151.145 33.9843 150.417 33.1443C149.698 32.295 148.886 31.8703 147.981 31.8703ZM156.667 41.1103C155.874 40.625 155.234 39.981 154.749 39.1783C154.264 38.3757 154.021 37.489 154.021 36.5183C154.021 35.5477 154.264 34.6563 154.749 33.8443C155.234 33.023 155.874 32.365 156.667 31.8703C157.46 31.3757 158.338 31.1283 159.299 31.1283C160.26 31.1283 161.133 31.3617 161.917 31.8283C162.71 32.295 163.35 32.939 163.835 33.7603C164.33 34.5723 164.577 35.487 164.577 36.5043C164.577 37.5123 164.33 38.4177 163.835 39.2203C163.35 40.023 162.71 40.6623 161.917 41.1383C161.133 41.605 160.26 41.8383 159.299 41.8383C158.338 41.8383 157.46 41.5957 156.667 41.1103ZM159.383 31.8703H158.921C158.128 31.8703 157.39 32.3277 156.709 33.2423C156.028 34.157 155.687 35.2677 155.687 36.5743C155.687 37.881 156.051 38.959 156.779 39.8083C157.507 40.6577 158.38 41.0823 159.397 41.0823C160.424 41.0823 161.264 40.653 161.917 39.7943C162.58 38.9263 162.911 37.811 162.911 36.4483C162.911 35.0857 162.547 33.9843 161.819 33.1443C161.1 32.295 160.288 31.8703 159.383 31.8703ZM168.125 40.0883C168.125 40.6483 168.522 40.9283 169.315 40.9283H169.679V41.5583H165.703V40.9283L166.193 40.9143C166.912 40.8957 167.271 40.6203 167.271 40.0883V32.7103C167.271 32.309 167.052 32.0757 166.613 32.0103H165.703V31.3803H168.111L172.549 39.2623L176.525 31.3803H179.395V32.0103H178.415C178.042 32.0757 177.855 32.309 177.855 32.7103V40.0883C177.855 40.6483 178.247 40.9283 179.031 40.9283H179.395V41.5583H174.943V40.9283L175.433 40.9143C176.152 40.8957 176.511 40.6203 176.511 40.0883V33.1303L172.367 41.2503L168.125 33.8163V40.0883Z" fill="#FFD762"/>
</g>
</g>
<defs>
<filter id="filter0_d_1_217" x="-0.878174" y="-1.87817" width="206" height="75.7422" filterUnits="userSpaceOnUse" color-interpolation-filters="sRGB">
<feFlood flood-opacity="0" result="BackgroundImageFix"/>
<feColorMatrix in="SourceAlpha" type="matrix" values="0 0 0 0 0 0 0 0 0 0 0 0 0 0 0 0 0 0 127 0" result="hardAlpha"/>
<feOffset/>
<feGaussianBlur stdDeviation="4"/>
<feComposite in2="hardAlpha" operator="out"/>
<feColorMatrix type="matrix" values="0 0 0 0 0.968627 0 0 0 0 0.823529 0 0 0 0 0.380392 0 0 0 1 0"/>
<feBlend mode="normal" in2="BackgroundImageFix" result="effect1_dropShadow_1_217"/>
<feBlend mode="normal" in="SourceGraphic" in2="effect1_dropShadow_1_217" result="shape"/>
</filter>
<filter id="filter1_d_1_217" x="61.626" y="31.1284" width="119.77" height="14.71" filterUnits="userSpaceOnUse" color-interpolation-filters="sRGB">
<feFlood flood-opacity="0" result="BackgroundImageFix"/>
<feColorMatrix in="SourceAlpha" type="matrix" values="0 0 0 0 0 0 0 0 0 0 0 0 0 0 0 0 0 0 127 0" result="hardAlpha"/>
<feOffset dy="2"/>
<feGaussianBlur stdDeviation="1"/>
<feComposite in2="hardAlpha" operator="out"/>
<feColorMatrix type="matrix" values="0 0 0 0 0 0 0 0 0 0 0 0 0 0 0 0 0 0 0.5 0"/>
<feBlend mode="normal" in2="BackgroundImageFix" result="effect1_dropShadow_1_217"/>
<feBlend mode="normal" in="SourceGraphic" in2="effect1_dropShadow_1_217" result="shape"/>
</filter>
<linearGradient id="paint0_linear_1_217" x1="7.12183" y1="65.8641" x2="197.122" y2="65.8641" gradientUnits="userSpaceOnUse">
<stop stop-color="#A7904C"/>
<stop offset="0.534524" stop-color="#F1CC5E"/>
<stop offset="1" stop-color="#9E8A4D"/>
</linearGradient>
<clipPath id="clip0_1_217">
<rect width="221" height="71.797" fill="white"/>
</clipPath>
<clipPath id="clip1_1_217">
<rect width="33" height="33" fill="white" transform="translate(19 20)"/>
</clipPath>
</defs>
</svg>
