<svg width="21" height="21" viewBox="0 0 21 21" fill="none" xmlns="http://www.w3.org/2000/svg">
<path fill-rule="evenodd" clip-rule="evenodd" d="M18.375 7C18.375 5.55026 17.1998 4.375 15.75 4.375H8.75C7.30026 4.375 6.125 5.55026 6.125 7V17.5C6.125 18.9498 7.30026 20.125 8.75 20.125H15.75C17.1998 20.125 18.375 18.9498 18.375 17.5V7ZM16.625 7C16.625 6.51676 16.2333 6.125 15.75 6.125H8.75C8.26676 6.125 7.875 6.51676 7.875 7V17.5C7.875 17.9833 8.26676 18.375 8.75 18.375H15.75C16.2333 18.375 16.625 17.9833 16.625 17.5V7Z" fill="#FEFFAB"/>
<path d="M5.25 2.625H14C14.4833 2.625 14.875 2.23325 14.875 1.75C14.875 1.26675 14.4833 0.875 14 0.875H5.25C3.80026 0.875 2.625 2.05026 2.625 3.5V15.75C2.625 16.2333 3.01675 16.625 3.5 16.625C3.98325 16.625 4.375 16.2333 4.375 15.75V3.5C4.375 3.01676 4.76676 2.625 5.25 2.625Z" fill="#FEFFAB"/>
</svg>
