<svg width="16" height="17" viewBox="0 0 16 17" fill="none" xmlns="http://www.w3.org/2000/svg">
<path d="M12.0889 1.95555C11.6444 1.68889 11.1111 1.86666 10.8444 2.31111C10.5778 2.75555 10.7556 3.28889 11.2 3.55555C13.0667 4.71111 14.3111 6.75555 14.3111 8.88889C14.3111 12.3556 11.5556 15.1111 8.08889 15.1111C4.62222 15.1111 1.86667 12.3556 1.86667 8.88889C1.86667 6.66666 3.11111 4.62222 4.97778 3.46666C5.33333 3.2 5.51111 2.66666 5.24444 2.31111C4.97778 1.86666 4.44444 1.68889 4 1.95555C1.51111 3.37778 0 6.04444 0 8.88889C0 13.3333 3.55556 16.8889 8 16.8889C12.4444 16.8889 16 13.3333 16 8.88889C16 6.04444 14.4889 3.46666 12.0889 1.95555Z" fill="#F7D261"/>
<path d="M7.99997 9.77778C8.53331 9.77778 8.88886 9.42222 8.88886 8.88889V0.888889C8.88886 0.355556 8.53331 0 7.99997 0C7.46664 0 7.11108 0.355556 7.11108 0.888889V8.88889C7.11108 9.42222 7.46664 9.77778 7.99997 9.77778Z" fill="#F7D261"/>
</svg>
