<svg width="16" height="18" viewBox="0 0 16 18" fill="none" xmlns="http://www.w3.org/2000/svg">
<path d="M11.5673 4.87112H14.6499C15.3885 4.87112 16 5.44868 16 6.20136V10.7704H8.66242V5.44868C8.40724 5.37317 8.17814 5.27276 8.02568 5.12255C8.00041 5.12255 8.00041 5.09764 7.97432 5.09764C7.97432 5.09764 7.97432 5.12255 7.94904 5.12255C7.7705 5.27356 7.56668 5.37397 7.33758 5.44868V10.7704H0V6.20136C0 5.44788 0.586191 4.87112 1.32484 4.87112H4.43353C4.07643 4.6952 3.74543 4.44457 3.46497 4.21805C2.24204 3.06292 2.01294 1.45635 2.98069 0.55266C3.38833 0.200821 3.92316 0 4.50935 0C5.34991 0 6.21656 0.326134 6.95521 1.00411C7.36285 1.38085 7.74522 1.9078 7.97432 2.40985C8.2295 1.9078 8.61106 1.38085 9.0187 1.00411C9.73208 0.326134 10.6493 0 11.4646 0C12.076 0 12.6109 0.200821 12.9932 0.55266C13.9618 1.45635 13.7319 3.06292 12.4837 4.21805C12.2285 4.44377 11.8983 4.6952 11.5673 4.87112ZM7.03185 4.14334C7.13376 3.91762 6.87857 2.7625 6.03801 1.98411C5.6051 1.58247 5.0189 1.35675 4.50935 1.35675C4.35608 1.35675 4.10171 1.38165 3.92316 1.53267C3.8718 1.58327 3.71934 1.68368 3.71934 1.95921C3.71934 2.28534 3.92316 2.7874 4.40744 3.21474C5.0189 3.79231 5.98746 4.19395 6.70084 4.19395C6.92994 4.19395 7.03185 4.14334 7.03185 4.14334ZM8.96815 4.14334C8.96815 4.14334 9.09534 4.19395 9.29916 4.19395C10.0125 4.19395 10.9811 3.79231 11.5926 3.21474C12.0768 2.7882 12.2293 2.28615 12.2293 1.95921C12.2293 1.68288 12.1021 1.58247 12.076 1.53267C11.8975 1.38165 11.617 1.35675 11.4646 1.35675C10.9803 1.35675 10.3688 1.58247 9.9359 1.98411C9.12061 2.7625 8.84015 3.89191 8.96734 4.16824V4.14334H8.96815ZM7.33758 18H1.32484C0.586191 18 0 17.4224 0 16.6947V12.1007H7.33758V18ZM14.6499 18H8.66242V12.1007H16V16.6947C16 17.4224 15.3885 18 14.6499 18Z" fill="#F8D05F"/>
</svg>
