<svg width="20" height="20" viewBox="0 0 20 20" fill="none" xmlns="http://www.w3.org/2000/svg">
<path d="M16.3333 17.5H3.66666C2.58333 17.5 1.66666 16.5833 1.66666 15.5V11.6667H3.33333V15.1667C3.33333 15.6667 3.66666 15.8333 4.16666 15.8333H15.8333C16.3333 15.8333 16.6667 15.5 16.6667 15V11.6667H18.3333V15.5C18.3333 16.5833 17.4167 17.5 16.3333 17.5Z" fill="#F8D05F"/>
<path d="M12.75 10.0833L11.1667 11.6667V8.33333C11.1667 6.66667 11.1667 4.25 13.1667 2.5C10.3333 3 8.91667 5.16667 8.83334 8.33333V11.6667L7.25 10.0833L5.83334 10.8333L10 15L14.1667 10.8333L12.75 10.0833Z" fill="#F8D05F"/>
</svg>
