<svg width="16" height="16" viewBox="0 0 16 16" fill="none" xmlns="http://www.w3.org/2000/svg">
<g clip-path="url(#clip0_5_267)">
<path d="M8.67073 3.122C8.67073 1.43414 7.29761 0.0609741 5.60976 0.0609741C3.92186 0.0609741 2.54878 1.43414 2.54878 3.122C2.54878 4.80985 3.92186 6.18293 5.60976 6.18293C7.29761 6.18293 8.67073 4.80985 8.67073 3.122Z" fill="#F8D05F"/>
<path d="M11.1515 8.83629C10.8658 8.55058 10.4025 8.55054 10.1167 8.83624C9.83098 9.12195 9.83098 9.58527 10.1167 9.87107L11.0627 10.8172L10.1167 11.7631C9.83098 12.0488 9.83098 12.5121 10.1167 12.7979C10.2596 12.9408 10.4468 13.0123 10.6341 13.0123C10.8213 13.0123 11.0086 12.9408 11.1514 12.798L12.6148 11.3347C12.7521 11.1974 12.8292 11.0113 12.8292 10.8173C12.8292 10.6232 12.7521 10.4371 12.6149 10.2999L11.1515 8.83629Z" fill="#F8D05F"/>
<path d="M10.878 5.69512C9.19571 5.69512 7.70024 6.51054 6.76595 7.76683C6.38727 7.68741 6.00039 7.64634 5.60976 7.64634C2.51649 7.64634 0 10.1629 0 13.2561C0 13.6602 0.327561 13.9878 0.731707 13.9878H6.85834C7.79717 15.1755 9.25005 15.939 10.878 15.939C13.7022 15.939 16 13.6413 16 10.8171C16 7.99288 13.7022 5.69512 10.878 5.69512ZM10.878 14.4756C8.86068 14.4756 7.21951 12.8344 7.21951 10.8171C7.21951 8.79976 8.86068 7.15854 10.878 7.15854C12.8953 7.15854 14.5366 8.79976 14.5366 10.8171C14.5366 12.8344 12.8953 14.4756 10.878 14.4756Z" fill="#F8D05F"/>
</g>
<defs>
<clipPath id="clip0_5_267">
<rect width="16" height="16" fill="white"/>
</clipPath>
</defs>
</svg>
