<svg width="16" height="14" viewBox="0 0 16 14" fill="none" xmlns="http://www.w3.org/2000/svg">
<path d="M2.89423 13.9406C3.53402 13.9383 4.15497 13.7319 4.66003 13.3536C5.16509 12.9754 5.52578 12.4467 5.68572 11.8501H10.2326C10.371 12.3969 10.6763 12.8912 11.1091 13.2693C11.5419 13.6474 12.0823 13.8921 12.6608 13.9717C13.2393 14.0513 13.8293 13.9622 14.3547 13.716C14.8802 13.4697 15.317 13.0775 15.6089 12.59C15.9008 12.1024 16.0344 11.5419 15.9925 10.9806C15.9505 10.4193 15.735 9.88289 15.3736 9.44061C15.0123 8.99833 14.5217 8.67042 13.965 8.49912C13.4084 8.32783 12.8113 8.32101 12.2506 8.47955L9.99669 4.76755C10.4042 4.37879 10.6826 3.88219 10.7965 3.34079C10.9104 2.79939 10.8547 2.23761 10.6364 1.72675C10.4182 1.2159 10.0472 0.779023 9.57067 0.471581C9.09412 0.16414 8.53346 0 7.95987 0C7.38628 0 6.82562 0.16414 6.34907 0.471581C5.87252 0.779023 5.50158 1.2159 5.28333 1.72675C5.06508 2.23761 5.00937 2.79939 5.12327 3.34079C5.23717 3.88219 5.51554 4.37879 5.92305 4.76755L3.67423 8.48164C3.42101 8.40862 3.15853 8.3697 2.89423 8.36596C2.12664 8.36596 1.39048 8.65963 0.847702 9.18235C0.304927 9.70507 0 10.414 0 11.1533C0 11.8925 0.304927 12.6015 0.847702 13.1242C1.39048 13.6469 2.12664 13.9406 2.89423 13.9406ZM13.0241 9.75962C13.3103 9.75962 13.5901 9.84135 13.828 9.99449C14.066 10.1476 14.2515 10.3653 14.361 10.6199C14.4705 10.8746 14.4992 11.1548 14.4434 11.4252C14.3875 11.6955 14.2497 11.9438 14.0473 12.1387C13.8449 12.3336 13.5871 12.4664 13.3064 12.5201C13.0257 12.5739 12.7347 12.5463 12.4703 12.4408C12.2058 12.3354 11.9798 12.1567 11.8208 11.9275C11.6618 11.6984 11.5769 11.4289 11.5769 11.1533C11.5769 10.7837 11.7294 10.4292 12.0008 10.1678C12.2722 9.90645 12.6403 9.75962 13.0241 9.75962ZM7.95915 1.39769C8.24536 1.39769 8.52514 1.47943 8.76312 1.63256C9.0011 1.7857 9.18658 2.00336 9.29611 2.25802C9.40564 2.51267 9.43429 2.79289 9.37846 3.06323C9.32262 3.33358 9.18479 3.5819 8.98241 3.77681C8.78003 3.97171 8.52218 4.10445 8.24146 4.15822C7.96075 4.212 7.66978 4.1844 7.40536 4.07891C7.14093 3.97343 6.91492 3.7948 6.75591 3.56562C6.5969 3.33643 6.51203 3.06698 6.51203 2.79134C6.51203 2.42172 6.66449 2.06724 6.93588 1.80588C7.20727 1.54452 7.57535 1.39769 7.95915 1.39769ZM7.17915 5.46298C7.43236 5.53599 7.69485 5.57492 7.95915 5.57865C8.22452 5.5752 8.48807 5.53579 8.74204 5.46159L10.9938 9.1708C10.6244 9.52546 10.3614 9.96967 10.2326 10.4564H5.68572C5.55793 9.97194 5.29699 9.52952 4.93033 9.17568L7.17915 5.46298ZM2.89423 9.75962C3.18045 9.75962 3.46023 9.84135 3.69821 9.99449C3.93619 10.1476 4.12167 10.3653 4.2312 10.6199C4.34073 10.8746 4.36938 11.1548 4.31355 11.4252C4.25771 11.6955 4.11988 11.9438 3.9175 12.1387C3.71512 12.3336 3.45727 12.4664 3.17655 12.5201C2.89584 12.5739 2.60487 12.5463 2.34045 12.4408C2.07602 12.3354 1.85001 12.1567 1.691 11.9275C1.53199 11.6984 1.44712 11.4289 1.44712 11.1533C1.44712 10.7837 1.59958 10.4292 1.87097 10.1678C2.14236 9.90645 2.51044 9.75962 2.89423 9.75962Z" fill="#F8D05F"/>
</svg>
