<svg width="18" height="16" viewBox="0 0 18 16" fill="none" xmlns="http://www.w3.org/2000/svg">
<path d="M17.3454 0.65461C16.9425 0.251051 16.3806 -0.000351194 15.765 3.68239e-07H14.7438H14.2257H3.77431H3.25659H2.23499C1.61968 -0.000351194 1.05747 0.251086 0.654645 0.65461C0.251086 1.05743 -0.000351194 1.61965 3.68188e-07 2.23495V3.40555C3.68188e-07 4.84622 0.877114 6.14169 2.21463 6.67666L2.23464 6.68457L4.55724 7.39614C4.67276 7.54583 4.79454 7.6924 4.93042 7.83243C5.79305 8.71952 6.63149 9.31521 7.20925 9.79875C7.49827 10.0395 7.71834 10.2516 7.84733 10.432C7.91251 10.5221 7.95561 10.6024 7.98289 10.6766C8.00982 10.7511 8.02255 10.8193 8.02255 10.899C8.02255 12.0234 8.02255 11.3736 8.02255 12.498C8.02255 12.7305 7.98979 12.9302 7.93529 13.095C7.85218 13.343 7.72597 13.511 7.57072 13.6255C7.4141 13.7386 7.21891 13.8062 6.95816 13.8073C6.02831 13.8073 6.01935 13.8073 6.01865 13.8073H5.50058V15.4128H12.4994V13.8073H11.9814C11.9814 13.8073 11.972 13.8073 11.0422 13.8073C10.8683 13.8073 10.7231 13.7759 10.6 13.7228C10.4161 13.6417 10.2737 13.5148 10.1616 13.3175C10.0512 13.1206 9.97745 12.8474 9.97745 12.498C9.97745 11.3736 9.97745 12.0234 9.97745 10.899C9.97777 10.8193 9.99056 10.7511 10.0171 10.6766C10.0637 10.5479 10.164 10.3948 10.3351 10.2158C10.5893 9.94672 10.9908 9.63425 11.4695 9.25313C11.9482 8.87063 12.5032 8.415 13.0695 7.83246C13.2054 7.69243 13.3275 7.54587 13.4427 7.39617L15.7656 6.68461L15.7853 6.6767C17.1232 6.14173 18 4.84622 18 3.40555V2.23495C18.0004 1.61965 17.7492 1.05743 17.3454 0.65461ZM2.58574 5.7092C1.64897 5.32807 1.03574 4.41784 1.03574 3.40555V2.23495C1.03609 1.90245 1.16923 1.60552 1.38684 1.38716C1.60587 1.16916 1.90213 1.03605 2.23499 1.0357H3.25487C3.25382 1.2768 3.25241 1.51822 3.25241 1.7583C3.25311 2.86889 3.27829 3.96432 3.49696 5.00041C3.5756 5.37152 3.68079 5.73472 3.81878 6.08685L2.58574 5.7092ZM6.38905 6.6201C6.38905 6.6201 4.88802 5.20734 4.88802 3.79463C4.88802 2.38191 4.88802 1.05743 4.88802 1.05743H6.38905V6.6201ZM16.9646 3.40555C16.9646 4.41784 16.351 5.32807 15.4142 5.7092L14.1805 6.08685C14.415 5.48947 14.553 4.85933 14.6334 4.21299C14.7323 3.41557 14.7472 2.59123 14.7475 1.75827C14.7475 1.51822 14.7461 1.27677 14.7451 1.03567H15.765C16.0978 1.03602 16.3944 1.16912 16.6131 1.38713C16.8307 1.60545 16.9642 1.90206 16.9646 2.23492V3.40555Z" fill="#F8D05F"/>
</svg>
