<svg width="20" height="20" viewBox="0 0 20 20" fill="none" xmlns="http://www.w3.org/2000/svg">
<path d="M3.66667 2.5H16.3333C17.4167 2.5 18.3333 3.41667 18.3333 4.5V8.33334H16.6667V4.83334C16.6667 4.33334 16.3333 4.16667 15.8333 4.16667H4.16667C3.66667 4.16667 3.33334 4.5 3.33334 5V8.33334H1.66667V4.5C1.66667 3.41667 2.58334 2.5 3.66667 2.5Z" fill="#F8D05F"/>
<path d="M7.25 9.91667L8.83333 8.33333V11.6667C8.83333 13.3333 8.83333 15.75 6.83333 17.5C9.66666 17 11.0833 14.8333 11.1667 11.6667V8.33333L12.75 9.91667L14.1667 9.16667L10 5L5.83333 9.16667L7.25 9.91667Z" fill="#F8D05F"/>
</svg>
